# xmcd
#
# Track frame offsets:
#	150
#	13537
#	39825
#	60325
#	87807
#	115508
#	136229
#	161223
#	186540
#
# Disc length: 2870 seconds
#
# Revision: 0
# Processed by: cddbd v1.5.2PL0 Copyright (c) Steve Scherf et al.
# Submitted via: EasyCDDAExtractor 16.0.6.1
#
DISCID=680b3409
DTITLE=La Mula Jam Band - Supersucculent
DYEAR=2011
DGENRE=Funk
TTITLE0=Big Papa's Kitchen
TTITLE1=Crazy Fingers
TTITLE2=Funky La Mula
TTITLE3=Spicy Train Woman
TTITLE4=Song Of The Ghetto
TTITLE5=Wait For Tomorrow
TTITLE6=Funky  Astronaut
TTITLE7=Put Your Head
TTITLE8=Supersucculent
EXTD=
EXTT0=
EXTT1=
EXTT2=
EXTT3=
EXTT4=
EXTT5=
EXTT6=
EXTT7=
EXTT8=
PLAYORDER=
